<?xml version="1.0" encoding="UTF-8" standalone="no"?>
<!DOCTYPE svg PUBLIC "-//W3C//DTD SVG 1.0//EN" "http://www.w3.org/TR/2001/REC-SVG-20010904/DTD/svg10.dtd">
<!-- Generated by Microsoft Visio 11.0, SVG Export, v1.0 Use Cases.svg Page-1 -->
<svg xmlns="http://www.w3.org/2000/svg" xmlns:v="http://schemas.microsoft.com/visio/2003/SVGExtensions/" width="6.25667in"
		height="10.3817in" viewBox="0 0 450.48 747.48" xml:space="preserve" color-interpolation-filters="sRGB" class="st6">
	<v:documentProperties v:langID="1033" v:viewMarkup="false"/>

	<style type="text/css">
	<![CDATA[
		.st1 {fill:#e8eef7;stroke:#000000;stroke-linecap:round;stroke-linejoin:round;stroke-width:0.24}
		.st2 {fill:#000000;font-family:Arial;font-size:0.833336em}
		.st3 {font-size:1em}
		.st4 {marker-end:url(#mrkr4-69);stroke:#000000;stroke-linecap:round;stroke-linejoin:round;stroke-width:0.239976}
		.st5 {fill:#000000;fill-opacity:1;stroke:#000000;stroke-opacity:1;stroke-width:0.11763667807857}
		.st6 {fill:none;fill-rule:evenodd;font-size:12;overflow:visible;stroke-linecap:square;stroke-miterlimit:3}
	]]>
	</style>

	<defs id="Markers">
		<g id="lend4">
			<path d="M 2 1 L -0 0 L 2 -1 L 2 1 " style="stroke:none"/>
		</g>
		<marker id="mrkr4-69" class="st5" v:arrowType="4" v:arrowSize="1" v:setback="17.0015" refX="-17.001500150015" orient="auto"
				markerUnits="strokeWidth">
			<use xlink:href="#lend4" transform="scale(-8.5007500750075,-8.5007500750075) "/>
		</marker>
	</defs>
	<g v:mID="0" v:index="1" v:groupContext="foregroundPage">
		<title>Page-1</title>
		<v:pageProperties v:drawingScale="1" v:pageScale="1" v:drawingUnits="19" v:shadowOffsetX="9" v:shadowOffsetY="-9"/>
		<v:layer v:name="Connector" v:index="0"/>
		<g id="shape1-1" v:mID="1" v:groupContext="shape" transform="translate(159.346,-702.24)">
			<title>Ellipse</title>
			<desc>List Vehicles</desc>
			<v:userDefs>
				<v:ud v:nameU="visVersion" v:val="VT0(12):26"/>
			</v:userDefs>
			<v:textBlock v:margins="rect(4,4,4,4)" v:tabSpace="42.5197"/>
			<v:textRect cx="54" cy="724.98" width="94.5" height="39.375"/>
			<path d="M0 724.98 A54 22.5 0 1 1 108 724.98 A54 22.5 0 0 1 0 724.98 Z" class="st1"/>
			<text x="25.93" y="727.98" class="st2" v:langID="1033"><v:paragraph v:horizAlign="1"/><v:tabList/>List Vehicles</text>		</g>
		<g id="shape2-4" v:mID="2" v:groupContext="shape" transform="translate(159.346,-648.24)">
			<title>Ellipse.2</title>
			<desc>Add Vehicle to Inventory</desc>
			<v:userDefs>
				<v:ud v:nameU="visVersion" v:val="VT0(12):26"/>
			</v:userDefs>
			<v:textBlock v:margins="rect(4,4,4,4)" v:tabSpace="42.5197"/>
			<v:textRect cx="54" cy="724.98" width="94.5" height="39.375"/>
			<path d="M0 724.98 A54 22.5 0 1 1 108 724.98 A54 22.5 0 0 1 0 724.98 Z" class="st1"/>
			<text x="21.76" y="721.98" class="st2" v:langID="1033"><v:paragraph v:horizAlign="1"/><v:tabList/>Add Vehicle to <tspan
						x="33.43" dy="1.2em" class="st3">Inventory</tspan></text>		</g>
		<g id="shape3-8" v:mID="3" v:groupContext="shape" transform="translate(159.346,-594.24)">
			<title>Ellipse.3</title>
			<desc>Remove Vehicle from Inventory</desc>
			<v:userDefs>
				<v:ud v:nameU="visVersion" v:val="VT0(12):26"/>
			</v:userDefs>
			<v:textBlock v:margins="rect(4,4,4,4)" v:tabSpace="42.5197"/>
			<v:textRect cx="54" cy="724.98" width="94.5" height="39.375"/>
			<path d="M0 724.98 A54 22.5 0 1 1 108 724.98 A54 22.5 0 0 1 0 724.98 Z" class="st1"/>
			<text x="17.59" y="721.98" class="st2" v:langID="1033"><v:paragraph v:horizAlign="1"/><v:tabList/>Remove Vehicle <tspan
						x="22.04" dy="1.2em" class="st3">from Inventory</tspan></text>		</g>
		<g id="shape4-12" v:mID="4" v:groupContext="shape" transform="translate(159.346,-540.24)">
			<title>Ellipse.4</title>
			<desc>View Individual Vehicle Details</desc>
			<v:userDefs>
				<v:ud v:nameU="visVersion" v:val="VT0(12):26"/>
			</v:userDefs>
			<v:textBlock v:margins="rect(4,4,4,4)" v:tabSpace="42.5197"/>
			<v:textRect cx="54" cy="724.98" width="94.5" height="39.375"/>
			<path d="M0 724.98 A54 22.5 0 1 1 108 724.98 A54 22.5 0 0 1 0 724.98 Z" class="st1"/>
			<text x="20.65" y="721.98" class="st2" v:langID="1033"><v:paragraph v:horizAlign="1"/><v:tabList/>View Individual <tspan
						x="20.93" dy="1.2em" class="st3">Vehicle Details</tspan></text>		</g>
		<g id="shape5-16" v:mID="5" v:groupContext="shape" transform="translate(159.346,-486.24)">
			<title>Ellipse.5</title>
			<desc>Edit Vehicle Details</desc>
			<v:userDefs>
				<v:ud v:nameU="visVersion" v:val="VT0(12):26"/>
			</v:userDefs>
			<v:textBlock v:margins="rect(4,4,4,4)" v:tabSpace="42.5197"/>
			<v:textRect cx="54" cy="724.98" width="94.5" height="39.375"/>
			<path d="M0 724.98 A54 22.5 0 1 1 108 724.98 A54 22.5 0 0 1 0 724.98 Z" class="st1"/>
			<text x="10.92" y="727.98" class="st2" v:langID="1033"><v:paragraph v:horizAlign="1"/><v:tabList/>Edit Vehicle Details</text>		</g>
		<g id="shape6-19" v:mID="6" v:groupContext="shape" transform="translate(159.346,-432.24)">
			<title>Ellipse.6</title>
			<desc>Mark Vehicle as Pending Sale</desc>
			<v:userDefs>
				<v:ud v:nameU="visVersion" v:val="VT0(12):26"/>
			</v:userDefs>
			<v:textBlock v:margins="rect(4,4,4,4)" v:tabSpace="42.5197"/>
			<v:textRect cx="54" cy="724.98" width="94.5" height="39.375"/>
			<path d="M0 724.98 A54 22.5 0 1 1 108 724.98 A54 22.5 0 0 1 0 724.98 Z" class="st1"/>
			<text x="18.43" y="721.98" class="st2" v:langID="1033"><v:paragraph v:horizAlign="1"/><v:tabList/>Mark Vehicle as <tspan
						x="24.25" dy="1.2em" class="st3">Pending Sale</tspan></text>		</g>
		<g id="shape7-23" v:mID="7" v:groupContext="shape" transform="translate(159.346,-378.24)">
			<title>Ellipse.7</title>
			<desc>Finalize Vehicle Sale</desc>
			<v:userDefs>
				<v:ud v:nameU="visVersion" v:val="VT0(12):26"/>
			</v:userDefs>
			<v:textBlock v:margins="rect(4,4,4,4)" v:tabSpace="42.5197"/>
			<v:textRect cx="54" cy="724.98" width="94.5" height="39.375"/>
			<path d="M0 724.98 A54 22.5 0 1 1 108 724.98 A54 22.5 0 0 1 0 724.98 Z" class="st1"/>
			<text x="18.98" y="721.98" class="st2" v:langID="1033"><v:paragraph v:horizAlign="1"/><v:tabList/>Finalize Vehicle <tspan
						x="43.99" dy="1.2em" class="st3">Sale</tspan></text>		</g>
		<g id="shape8-27" v:mID="8" v:groupContext="shape" transform="translate(159.346,-324.24)">
			<title>Ellipse.8</title>
			<desc>Add Dealership to System</desc>
			<v:userDefs>
				<v:ud v:nameU="visVersion" v:val="VT0(12):26"/>
			</v:userDefs>
			<v:textBlock v:margins="rect(4,4,4,4)" v:tabSpace="42.5197"/>
			<v:textRect cx="54" cy="724.98" width="94.5" height="39.375"/>
			<path d="M0 724.98 A54 22.5 0 1 1 108 724.98 A54 22.5 0 0 1 0 724.98 Z" class="st1"/>
			<text x="14.25" y="721.98" class="st2" v:langID="1033"><v:paragraph v:horizAlign="1"/><v:tabList/>Add Dealership to <tspan
						x="37.33" dy="1.2em" class="st3">System</tspan></text>		</g>
		<g id="shape9-31" v:mID="9" v:groupContext="shape" transform="translate(159.346,-270.24)">
			<title>Ellipse.9</title>
			<desc>Remove Dealership from System</desc>
			<v:userDefs>
				<v:ud v:nameU="visVersion" v:val="VT0(12):26"/>
			</v:userDefs>
			<v:textBlock v:margins="rect(4,4,4,4)" v:tabSpace="42.5197"/>
			<v:textRect cx="54" cy="724.98" width="94.5" height="39.375"/>
			<path d="M0 724.98 A54 22.5 0 1 1 108 724.98 A54 22.5 0 0 1 0 724.98 Z" class="st1"/>
			<text x="35.38" y="715.98" class="st2" v:langID="1033"><v:paragraph v:horizAlign="1"/><v:tabList/>Remove <tspan
						x="18.71" dy="1.2em" class="st3">Dealership from </tspan><tspan x="37.33" dy="1.2em" class="st3">System</tspan></text>		</g>
		<g id="shape10-36" v:mID="10" v:groupContext="shape" transform="translate(159.346,-216.24)">
			<title>Ellipse.10</title>
			<desc>Edit Dealership Details</desc>
			<v:userDefs>
				<v:ud v:nameU="visVersion" v:val="VT0(12):26"/>
			</v:userDefs>
			<v:textBlock v:margins="rect(4,4,4,4)" v:tabSpace="42.5197"/>
			<v:textRect cx="54" cy="724.98" width="94.5" height="39.375"/>
			<path d="M0 724.98 A54 22.5 0 1 1 108 724.98 A54 22.5 0 0 1 0 724.98 Z" class="st1"/>
			<text x="20.09" y="721.98" class="st2" v:langID="1033"><v:paragraph v:horizAlign="1"/><v:tabList/>Edit Dealership <tspan
						x="38.72" dy="1.2em" class="st3">Details</tspan></text>		</g>
		<g id="shape11-40" v:mID="11" v:groupContext="shape" transform="translate(159.346,-162.24)">
			<title>Ellipse.11</title>
			<desc>Add Employee</desc>
			<v:userDefs>
				<v:ud v:nameU="visVersion" v:val="VT0(12):26"/>
			</v:userDefs>
			<v:textBlock v:margins="rect(4,4,4,4)" v:tabSpace="42.5197"/>
			<v:textRect cx="54" cy="724.98" width="94.5" height="39.375"/>
			<path d="M0 724.98 A54 22.5 0 1 1 108 724.98 A54 22.5 0 0 1 0 724.98 Z" class="st1"/>
			<text x="21.48" y="727.98" class="st2" v:langID="1033"><v:paragraph v:horizAlign="1"/><v:tabList/>Add Employee</text>		</g>
		<g id="shape12-43" v:mID="12" v:groupContext="shape" transform="translate(159.346,-108.24)">
			<title>Ellipse.12</title>
			<desc>Initiate Vehicle Trade</desc>
			<v:userDefs>
				<v:ud v:nameU="visVersion" v:val="VT0(12):26"/>
			</v:userDefs>
			<v:textBlock v:margins="rect(4,4,4,4)" v:tabSpace="42.5197"/>
			<v:textRect cx="54" cy="724.98" width="94.5" height="39.375"/>
			<path d="M0 724.98 A54 22.5 0 1 1 108 724.98 A54 22.5 0 0 1 0 724.98 Z" class="st1"/>
			<text x="21.48" y="721.98" class="st2" v:langID="1033"><v:paragraph v:horizAlign="1"/><v:tabList/>Initiate Vehicle <tspan
						x="40.94" dy="1.2em" class="st3">Trade</tspan></text>		</g>
		<g id="shape13-47" v:mID="13" v:groupContext="shape" transform="translate(159.346,-54.24)">
			<title>Ellipse.13</title>
			<desc>Accept Vehicle Trade</desc>
			<v:userDefs>
				<v:ud v:nameU="visVersion" v:val="VT0(12):26"/>
			</v:userDefs>
			<v:textBlock v:margins="rect(4,4,4,4)" v:tabSpace="42.5197"/>
			<v:textRect cx="54" cy="724.98" width="94.5" height="39.375"/>
			<path d="M0 724.98 A54 22.5 0 1 1 108 724.98 A54 22.5 0 0 1 0 724.98 Z" class="st1"/>
			<text x="20.93" y="721.98" class="st2" v:langID="1033"><v:paragraph v:horizAlign="1"/><v:tabList/>Accept Vehicle <tspan
						x="40.94" dy="1.2em" class="st3">Trade</tspan></text>		</g>
		<g id="shape14-51" v:mID="14" v:groupContext="shape" transform="translate(159.346,-0.24)">
			<title>Ellipse.14</title>
			<desc>Reject Vehicle Trade</desc>
			<v:userDefs>
				<v:ud v:nameU="visVersion" v:val="VT0(12):26"/>
			</v:userDefs>
			<v:textBlock v:margins="rect(4,4,4,4)" v:tabSpace="42.5197"/>
			<v:textRect cx="54" cy="724.98" width="94.5" height="39.375"/>
			<path d="M0 724.98 A54 22.5 0 1 1 108 724.98 A54 22.5 0 0 1 0 724.98 Z" class="st1"/>
			<text x="22.04" y="721.98" class="st2" v:langID="1033"><v:paragraph v:horizAlign="1"/><v:tabList/>Reject Vehicle <tspan
						x="40.94" dy="1.2em" class="st3">Trade</tspan></text>		</g>
		<g id="shape15-55" v:mID="15" v:groupContext="shape" transform="translate(0.24,-378)">
			<title>Rectangle</title>
			<desc>Manager</desc>
			<v:userDefs>
				<v:ud v:nameU="visVersion" v:val="VT0(12):26"/>
			</v:userDefs>
			<v:textBlock v:margins="rect(4,4,4,4)" v:tabSpace="42.5197"/>
			<v:textRect cx="49.38" cy="724.98" width="98.77" height="45"/>
			<rect x="0" y="702.48" width="98.76" height="45" class="st1"/>
			<text x="29.65" y="727.98" class="st2" v:langID="1033"><v:paragraph v:horizAlign="1"/><v:tabList/>Manager</text>		</g>
		<g id="shape16-58" v:mID="16" v:groupContext="shape" transform="translate(0.48,-585)">
			<title>Rectangle.16</title>
			<desc>Salesperson</desc>
			<v:userDefs>
				<v:ud v:nameU="visVersion" v:val="VT0(12):26"/>
			</v:userDefs>
			<v:textBlock v:margins="rect(4,4,4,4)" v:tabSpace="42.5197"/>
			<v:textRect cx="49.38" cy="724.98" width="98.77" height="45"/>
			<rect x="0" y="702.48" width="98.76" height="45" class="st1"/>
			<text x="21.58" y="727.98" class="st2" v:langID="1033"><v:paragraph v:horizAlign="1"/><v:tabList/>Salesperson</text>		</g>
		<g id="shape17-61" v:mID="17" v:groupContext="shape" transform="translate(351.24,-306)">
			<title>Rectangle.17</title>
			<desc>Admin</desc>
			<v:userDefs>
				<v:ud v:nameU="visVersion" v:val="VT0(12):26"/>
			</v:userDefs>
			<v:textBlock v:margins="rect(4,4,4,4)" v:tabSpace="42.5197"/>
			<v:textRect cx="49.5" cy="724.98" width="99" height="45"/>
			<rect x="0" y="702.48" width="99" height="45" class="st1"/>
			<text x="35.33" y="727.98" class="st2" v:langID="1033"><v:paragraph v:horizAlign="1"/><v:tabList/>Admin</text>		</g>
		<g id="shape18-64" v:mID="18" v:groupContext="shape" v:layerMember="0"
				transform="translate(-635.861,210.212) rotate(-79.457)">
			<title>Directed line 1</title>
			<v:userDefs>
				<v:ud v:nameU="visVersion" v:val="VT0(12):26"/>
				<v:ud v:nameU="msvThemeEffects" v:prompt="" v:val="VT0(1):26"/>
			</v:userDefs>
			<path d="M0 747.48 L325.73 747.48" class="st4"/>
		</g>
		<g id="shape19-70" v:mID="19" v:groupContext="shape" v:layerMember="0"
				transform="translate(-565.92,-201.03) rotate(-62.857)">
			<title>Directed line 1.19</title>
			<v:userDefs>
				<v:ud v:nameU="visVersion" v:val="VT0(12):26"/>
				<v:ud v:nameU="msvThemeEffects" v:prompt="" v:val="VT0(1):26"/>
			</v:userDefs>
			<path d="M0 747.48 L127.67 747.48" class="st4"/>
		</g>
		<g id="shape20-75" v:mID="20" v:groupContext="shape" v:layerMember="0"
				transform="translate(-380.029,573.808) rotate(-101.954)">
			<title>Directed line 1.20</title>
			<v:userDefs>
				<v:ud v:nameU="visVersion" v:val="VT0(12):26"/>
				<v:ud v:nameU="msvThemeEffects" v:prompt="" v:val="VT0(1):26"/>
			</v:userDefs>
			<path d="M0 747.48 L400.94 747.48" class="st4"/>
		</g>
		<g id="shape21-80" v:mID="21" v:groupContext="shape" v:layerMember="0"
				transform="translate(-630.513,184.076) rotate(-77.4121)">
			<title>Directed line 1.21</title>
			<v:userDefs>
				<v:ud v:nameU="visVersion" v:val="VT0(12):26"/>
				<v:ud v:nameU="msvThemeEffects" v:prompt="" v:val="VT0(1):26"/>
			</v:userDefs>
			<path d="M0 747.48 L272.82 747.48" class="st4"/>
		</g>
		<g id="shape22-85" v:mID="22" v:groupContext="shape" v:layerMember="0"
				transform="translate(-620.97,146.059) rotate(-74.4072)">
			<title>Directed line 1.22</title>
			<v:userDefs>
				<v:ud v:nameU="visVersion" v:val="VT0(12):26"/>
				<v:ud v:nameU="msvThemeEffects" v:prompt="" v:val="VT0(1):26"/>
			</v:userDefs>
			<path d="M0 747.48 L220.42 747.48" class="st4"/>
		</g>
		<g id="shape23-90" v:mID="23" v:groupContext="shape" v:layerMember="0"
				transform="translate(545.687,-459.53) rotate(36.6746)">
			<title>Directed line 1.23</title>
			<v:userDefs>
				<v:ud v:nameU="visVersion" v:val="VT0(12):26"/>
				<v:ud v:nameU="msvThemeEffects" v:prompt="" v:val="VT0(1):26"/>
			</v:userDefs>
			<path d="M0 747.48 L70.86 747.48" class="st4"/>
		</g>
		<g id="shape24-95" v:mID="24" v:groupContext="shape" v:layerMember="0"
				transform="translate(-601.586,86.394) rotate(-69.5971)">
			<title>Directed line 1.24</title>
			<v:userDefs>
				<v:ud v:nameU="visVersion" v:val="VT0(12):26"/>
				<v:ud v:nameU="msvThemeEffects" v:prompt="" v:val="VT0(1):26"/>
			</v:userDefs>
			<path d="M0 747.48 L169.02 747.48" class="st4"/>
		</g>
		<g id="shape25-100" v:mID="25" v:groupContext="shape" v:layerMember="0"
				transform="translate(-553.87,-17.0074) rotate(-60.8595)">
			<title>Directed line 1.25</title>
			<v:userDefs>
				<v:ud v:nameU="visVersion" v:val="VT0(12):26"/>
				<v:ud v:nameU="msvThemeEffects" v:prompt="" v:val="VT0(1):26"/>
			</v:userDefs>
			<path d="M0 747.48 L119.85 747.48" class="st4"/>
		</g>
		<g id="shape26-105" v:mID="26" v:groupContext="shape" v:layerMember="0"
				transform="translate(794.814,-133.705) rotate(68.5221)">
			<title>Directed line 1.26</title>
			<v:userDefs>
				<v:ud v:nameU="visVersion" v:val="VT0(12):26"/>
				<v:ud v:nameU="msvThemeEffects" v:prompt="" v:val="VT0(1):26"/>
			</v:userDefs>
			<path d="M0 747.48 L160.08 747.48" class="st4"/>
		</g>
		<g id="shape27-110" v:mID="27" v:groupContext="shape" v:layerMember="0"
				transform="translate(96.0272,-400.494) rotate(-0.227869)">
			<title>Directed line 1.27</title>
			<v:userDefs>
				<v:ud v:nameU="visVersion" v:val="VT0(12):26"/>
				<v:ud v:nameU="msvThemeEffects" v:prompt="" v:val="VT0(1):26"/>
			</v:userDefs>
			<path d="M0 747.48 L56.27 747.48" class="st4"/>
		</g>
		<g id="shape28-115" v:mID="28" v:groupContext="shape" v:layerMember="0"
				transform="translate(192.435,1149.4) rotate(-167.734)">
			<title>Directed line 1.28</title>
			<v:userDefs>
				<v:ud v:nameU="visVersion" v:val="VT0(12):26"/>
				<v:ud v:nameU="msvThemeEffects" v:prompt="" v:val="VT0(1):26"/>
			</v:userDefs>
			<path d="M0 747.48 L81.77 747.48" class="st4"/>
		</g>
		<g id="shape29-120" v:mID="29" v:groupContext="shape" v:layerMember="0"
				transform="translate(644.338,1106.6) rotate(156.914)">
			<title>Directed line 1.29</title>
			<v:userDefs>
				<v:ud v:nameU="visVersion" v:val="VT0(12):26"/>
				<v:ud v:nameU="msvThemeEffects" v:prompt="" v:val="VT0(1):26"/>
			</v:userDefs>
			<path d="M0 747.48 L87.12 747.48" class="st4"/>
		</g>
		<g id="shape30-125" v:mID="30" v:groupContext="shape" v:layerMember="0"
				transform="translate(897.33,929.383) rotate(133.065)">
			<title>Directed line 1.30</title>
			<v:userDefs>
				<v:ud v:nameU="visVersion" v:val="VT0(12):26"/>
				<v:ud v:nameU="msvThemeEffects" v:prompt="" v:val="VT0(1):26"/>
			</v:userDefs>
			<path d="M0 747.48 L118.78 747.48" class="st4"/>
		</g>
		<g id="shape31-130" v:mID="31" v:groupContext="shape" v:layerMember="0"
				transform="translate(996.831,795.728) rotate(120.267)">
			<title>Directed line 1.31</title>
			<v:userDefs>
				<v:ud v:nameU="visVersion" v:val="VT0(12):26"/>
				<v:ud v:nameU="msvThemeEffects" v:prompt="" v:val="VT0(1):26"/>
			</v:userDefs>
			<path d="M0 747.48 L162.37 747.48" class="st4"/>
		</g>
		<g id="shape32-135" v:mID="32" v:groupContext="shape" v:layerMember="0"
				transform="translate(837.121,229.068) rotate(80.9239)">
			<title>Directed line 1.32</title>
			<v:userDefs>
				<v:ud v:nameU="visVersion" v:val="VT0(12):26"/>
				<v:ud v:nameU="msvThemeEffects" v:prompt="" v:val="VT0(1):26"/>
			</v:userDefs>
			<path d="M0 747.48 L378.47 747.48" class="st4"/>
		</g>
		<g id="shape33-140" v:mID="33" v:groupContext="shape" v:layerMember="0"
				transform="translate(833.825,210.016) rotate(79.4418)">
			<title>Directed line 1.33</title>
			<v:userDefs>
				<v:ud v:nameU="visVersion" v:val="VT0(12):26"/>
				<v:ud v:nameU="msvThemeEffects" v:prompt="" v:val="VT0(1):26"/>
			</v:userDefs>
			<path d="M0 747.48 L325.26 747.48" class="st4"/>
		</g>
		<g id="shape34-145" v:mID="34" v:groupContext="shape" v:layerMember="0"
				transform="translate(828.451,183.8) rotate(77.3904)">
			<title>Directed line 1.34</title>
			<v:userDefs>
				<v:ud v:nameU="visVersion" v:val="VT0(12):26"/>
				<v:ud v:nameU="msvThemeEffects" v:prompt="" v:val="VT0(1):26"/>
			</v:userDefs>
			<path d="M0 747.48 L272.35 747.48" class="st4"/>
		</g>
	</g>
</svg>
